<svg xmlns="http://www.w3.org/2000/svg" xmlns:svg="http://www.w3.org/2000/svg" xmlns:xlink="http://www.w3.org/1999/xlink" version="1.0" height="1240.000000000001pt" width="1430.0000000000002pt" viewBox="-14.999999999999924 -163.0000000000009 1438.0000000000002 1246.000000000001" ><defs><style type="text/css">
            @font-face {
                font-family: 'lt_regular';
                src: url('https://app.creately.com/diagram/assets/fonts/lato/lt-regular-webfont.woff2') format('woff2'),
                    url('https://app.creately.com/diagram/assets/fonts/lato/lt-regular-webfont.woff') format('woff');
                font-weight: normal;
                font-style: normal;
            }
            @font-face {
                font-family: 'noto_regular';
                src: url('https://app.creately.com/diagram/assets/fonts/noto/noto-regular.woff') format('woff'),
                     url('https://app.creately.com/diagram/assets/fonts/noto/noto-regular.woff2') format('woff2');
                font-weight: normal;
                font-style: normal;
            }
        p {
            margin: 0;
        }
        </style></defs><defs><style>
            span{ display: inline-block; }
        </style></defs><g id="bBVo7X7RdKy"><g transform="translate(-9.999999999999773 1080) rotate(-7.0167092985348594e-15)"><rect x="0" y="-1240.0000000000007" width="1430" height="1240.0000000000007" fill="rgb(26,188,156)" stroke="#1abc9c" stroke-width="2" stroke-linecap="round" stroke-linejoin="round"/></g></g><g id="6QIlYJj4qLP"><g transform="translate(359.99999999999994 130)"><rect x="0" y="0" width="99.99999999999987" height="99.99999999999987" fill="rgb(0,70,138)" stroke="#000000" stroke-width="4" stroke-linecap="round" stroke-linejoin="round"/></g><g transform="translate(390.9999999999999, 169.99999999999994) rotate(0, 19, 10)" width="38" height="20"><text text-decoration="none" x="0.5" fill="rgb(255, 255, 255)" font-size="10pt" font-family="lt_regular"  y="15">Admin</text><text text-decoration="none" x="37.5" fill="#4b4b4b" font-size="10pt" font-family="noto_regular"  y="15"></text></g></g><g id="pNGFMXvsQ3y"><g transform="translate(780 30.000000000000007)"><ellipse cx="49.99999999999997" cy="49.99999999999997" rx="49.99999999999997" ry="49.99999999999997" fill="rgb(252,210,42)" stroke="#000000" stroke-width="2" stroke-linecap="round" stroke-linejoin="round"/><path d="M 1.0102051443364388,39.99999999999998 L 98.9897948556635,39.99999999999998 M 1.0102051443364388,39.99999999999998 Z" fill="rgb(252,210,42)" stroke="#000000" stroke-width="2" stroke-linecap="round" stroke-linejoin="round"/></g><g transform="translate(820.5, 44.99999999999999) rotate(0, 9.5, 10)" width="19" height="20"><text text-decoration="none" x="0" fill="rgb(0, 0, 0)" font-size="10pt" font-family="lt_regular"  y="15">3.0</text><text text-decoration="none" x="19" fill="#4b4b4b" font-size="10pt" font-family="noto_regular"  y="15"></text></g><g transform="translate(800.5, 52.99999999999997) rotate(0, 29.5, 29)" width="59" height="58"><text text-decoration="none" x="29.5" fill="rgb(0, 0, 0)" font-size="10pt" font-family="lt_regular"  y="14"></text><text text-decoration="none" x="0" fill="rgb(0, 0, 0)" font-size="10pt" font-family="lt_regular"  y="32">Sign&#160;</text><text text-decoration="none" x="27" fill="rgb(0, 0, 0)" font-size="10pt" font-family="lt_regular"  y="32">Up&#160;</text><text text-decoration="none" x="47" fill="rgb(0, 0, 0)" font-size="10pt" font-family="lt_regular"  y="32">or&#160;</text><text text-decoration="none" x="14" fill="rgb(0, 0, 0)" font-size="10pt" font-family="lt_regular"  y="51">Login</text><text text-decoration="none" x="45" fill="#4b4b4b" font-size="10pt" font-family="noto_regular"  y="51"></text></g></g><g id="oqi2Cg8LsKZ"><g transform="translate(779.9999999999999 209.99999999999994)"><ellipse cx="49.99999999999995" cy="49.99999999999995" rx="49.99999999999995" ry="49.99999999999995" fill="rgb(252,210,42)" stroke="#000000" stroke-width="2" stroke-linecap="round" stroke-linejoin="round"/><path d="M 1.0102051443364317,39.999999999999964 L 98.98979485566346,39.999999999999964 M 1.0102051443364317,39.999999999999964 Z" fill="rgb(252,210,42)" stroke="#000000" stroke-width="2" stroke-linecap="round" stroke-linejoin="round"/></g><g transform="translate(820.4999999999998, 224.99999999999991) rotate(0, 9.5, 10)" width="19" height="20"><text text-decoration="none" x="0" fill="rgb(0, 0, 0)" font-size="10pt" font-family="lt_regular"  y="15">3.0</text><text text-decoration="none" x="19" fill="#4b4b4b" font-size="10pt" font-family="noto_regular"  y="15"></text></g><g transform="translate(803.4999999999998, 251.9999999999999) rotate(0, 26.5, 10)" width="53" height="20"><text text-decoration="none" x="0" fill="rgb(0, 0, 0)" font-size="10pt" font-family="lt_regular"  y="15">Add&#160;</text><text text-decoration="none" x="26" fill="rgb(0, 0, 0)" font-size="10pt" font-family="lt_regular"  y="15">Item</text><text text-decoration="none" x="53" fill="#4b4b4b" font-size="10pt" font-family="noto_regular"  y="15"></text></g></g><g id="zezhwy7Ds8e"><g transform="translate(780 370)"><ellipse cx="49.999999999999964" cy="49.999999999999964" rx="49.999999999999964" ry="49.999999999999964" fill="rgb(252,210,42)" stroke="#000000" stroke-width="2" stroke-linecap="round" stroke-linejoin="round"/><path d="M 1.0102051443364388,39.99999999999997 L 98.98979485566349,39.99999999999997 M 1.0102051443364388,39.99999999999997 Z" fill="rgb(252,210,42)" stroke="#000000" stroke-width="2" stroke-linecap="round" stroke-linejoin="round"/></g><g transform="translate(820.5, 385) rotate(0, 9.5, 10)" width="19" height="20"><text text-decoration="none" x="0" fill="rgb(0, 0, 0)" font-size="10pt" font-family="lt_regular"  y="15">3.0</text><text text-decoration="none" x="19" fill="#4b4b4b" font-size="10pt" font-family="noto_regular"  y="15"></text></g><g transform="translate(795.5, 412) rotate(0, 34.5, 10)" width="69" height="20"><text text-decoration="none" x="0.5" fill="rgb(0, 0, 0)" font-size="10pt" font-family="lt_regular"  y="15">Search&#160;</text><text text-decoration="none" x="41.5" fill="rgb(0, 0, 0)" font-size="10pt" font-family="lt_regular"  y="15">Item</text><text text-decoration="none" x="68.5" fill="#4b4b4b" font-size="10pt" font-family="noto_regular"  y="15"></text></g></g><g id="NLjxxddjbTn"><g transform="translate(779.9999999999999 530)"><ellipse cx="49.99999999999997" cy="49.99999999999997" rx="49.99999999999997" ry="49.99999999999997" fill="rgb(252,210,42)" stroke="#000000" stroke-width="2" stroke-linecap="round" stroke-linejoin="round"/><path d="M 1.0102051443364388,39.99999999999998 L 98.9897948556635,39.99999999999998 M 1.0102051443364388,39.99999999999998 Z" fill="rgb(252,210,42)" stroke="#000000" stroke-width="2" stroke-linecap="round" stroke-linejoin="round"/></g><g transform="translate(820.4999999999998, 545) rotate(0, 9.5, 10)" width="19" height="20"><text text-decoration="none" x="0" fill="rgb(0, 0, 0)" font-size="10pt" font-family="lt_regular"  y="15">4.0</text><text text-decoration="none" x="19" fill="#4b4b4b" font-size="10pt" font-family="noto_regular"  y="15"></text></g><g transform="translate(796.4999999999998, 572) rotate(0, 33.5, 10)" width="67" height="20"><text text-decoration="none" x="0.5" fill="rgb(0, 0, 0)" font-size="10pt" font-family="lt_regular"  y="15">Add&#160;</text><text text-decoration="none" x="26.5" fill="rgb(0, 0, 0)" font-size="10pt" font-family="lt_regular"  y="15">to&#160;</text><text text-decoration="none" x="41.5" fill="rgb(0, 0, 0)" font-size="10pt" font-family="lt_regular"  y="15">Cart</text><text text-decoration="none" x="66.5" fill="#4b4b4b" font-size="10pt" font-family="noto_regular"  y="15"></text></g></g><g id="rqGwOcnElXz"><g transform="translate(775 680)"><ellipse cx="49.99999999999997" cy="49.99999999999997" rx="49.99999999999997" ry="49.99999999999997" fill="rgb(252,210,42)" stroke="#000000" stroke-width="2" stroke-linecap="round" stroke-linejoin="round"/><path d="M 1.0102051443364388,39.99999999999998 L 98.9897948556635,39.99999999999998 M 1.0102051443364388,39.99999999999998 Z" fill="rgb(252,210,42)" stroke="#000000" stroke-width="2" stroke-linecap="round" stroke-linejoin="round"/></g><g transform="translate(815.5, 695) rotate(0, 9.5, 10)" width="19" height="20"><text text-decoration="none" x="0" fill="rgb(0, 0, 0)" font-size="10pt" font-family="lt_regular"  y="15">5.0</text><text text-decoration="none" x="19" fill="#4b4b4b" font-size="10pt" font-family="noto_regular"  y="15"></text></g><g transform="translate(808, 722) rotate(0, 17, 10)" width="34" height="20"><text text-decoration="none" x="0" fill="rgb(0, 0, 0)" font-size="10pt" font-family="lt_regular"  y="15">Order</text><text text-decoration="none" x="34" fill="#4b4b4b" font-size="10pt" font-family="noto_regular"  y="15"></text></g></g><g id="yKbAVLtOvvH"><g transform="translate(775 860)"><ellipse cx="49.99999999999997" cy="49.99999999999997" rx="49.99999999999997" ry="49.99999999999997" fill="rgb(252,210,42)" stroke="#000000" stroke-width="2" stroke-linecap="round" stroke-linejoin="round"/><path d="M 1.0102051443364388,39.99999999999998 L 98.9897948556635,39.99999999999998 M 1.0102051443364388,39.99999999999998 Z" fill="rgb(252,210,42)" stroke="#000000" stroke-width="2" stroke-linecap="round" stroke-linejoin="round"/></g><g transform="translate(815.5, 875) rotate(0, 9.5, 10)" width="19" height="20"><text text-decoration="none" x="0" fill="rgb(0, 0, 0)" font-size="10pt" font-family="lt_regular"  y="15">6.0</text><text text-decoration="none" x="19" fill="#4b4b4b" font-size="10pt" font-family="noto_regular"  y="15"></text></g><g transform="translate(798.5, 902) rotate(0, 26.5, 10)" width="53" height="20"><text text-decoration="none" x="0.5" fill="rgb(0, 0, 0)" font-size="10pt" font-family="lt_regular"  y="15">Purchase</text><text text-decoration="none" x="52.5" fill="#4b4b4b" font-size="10pt" font-family="noto_regular"  y="15"></text></g></g><g id="e9MsXrkYEk3"><g transform="translate(200 640)"><rect x="0" y="0" width="99.99999999999936" height="99.99999999999936" fill="rgb(0,70,138)" stroke="#000000" stroke-width="4" stroke-linecap="round" stroke-linejoin="round"/></g><g transform="translate(236.4999999999997, 679.9999999999997) rotate(0, 13.5, 10)" width="27" height="20"><text text-decoration="none" x="0" fill="rgb(255, 255, 255)" font-size="10pt" font-family="lt_regular"  y="15">User</text><text text-decoration="none" x="28" fill="#4b4b4b" font-size="10pt" font-family="noto_regular"  y="15"></text></g></g><g id="ewFDc0RIRBo"><g transform="translate(1195 370)"><rect x="0" y="0" width="99.99999999999996" height="99.99999999999996" fill="rgb(0,70,138)" stroke="#000000" stroke-width="4" stroke-linecap="round" stroke-linejoin="round"/></g><g transform="translate(1226, 410) rotate(0, 19, 10)" width="38" height="20"><text text-decoration="none" x="0" fill="rgb(255, 255, 255)" font-size="10pt" font-family="lt_regular"  y="15">Visitor</text><text text-decoration="none" x="38" fill="#4b4b4b" font-size="10pt" font-family="noto_regular"  y="15"></text></g></g><g id="yqcP3kLf0YB"><g transform="translate(1199.9999999999998 59.999999999999986)"><path d="M 0,0 L 99.99999999999993,0 M 99.99999999999993,39.99999999999997 L 0,39.99999999999997 M 0,0 Z" fill="white" stroke="#000000" stroke-width="2" stroke-linecap="round" stroke-linejoin="round" stroke-dasharray="3 3"/><rect x="0" y="0" width="99.99999999999993" height="39.99999999999997" fill="rgba(255,255,255,0.01)" stroke="rgba(255,255,255,0.01)" stroke-width="2" stroke-linecap="round" stroke-linejoin="round" stroke-dasharray="3 3"/></g><g transform="translate(1234.4999999999998, 69.99999999999997) rotate(0, 15.5, 10)" width="31" height="20"><text text-decoration="none" x="0" fill="rgb(0, 0, 0)" font-size="10pt" font-family="lt_regular"  y="15">Login</text><text text-decoration="none" x="31" fill="#4b4b4b" font-size="10pt" font-family="noto_regular"  y="15"></text></g></g><g id="gljVNsJzvhf"><g transform="translate(1195 240)"><path d="M 0,0 L 99.99999999999999,0 M 99.99999999999999,39.99999999999999 L 0,39.99999999999999 M 0,0 Z" fill="white" stroke="#000000" stroke-width="2" stroke-linecap="round" stroke-linejoin="round" stroke-dasharray="3 3"/><rect x="0" y="0" width="99.99999999999999" height="39.99999999999999" fill="rgba(255,255,255,0.01)" stroke="rgba(255,255,255,0.01)" stroke-width="2" stroke-linecap="round" stroke-linejoin="round" stroke-dasharray="3 3"/></g><g transform="translate(1211.5, 250) rotate(0, 33.5, 10)" width="67" height="20"><text text-decoration="none" x="1" fill="rgb(0, 0, 0)" font-size="10pt" font-family="lt_regular"  y="15">tbl_product</text><text text-decoration="none" x="66" fill="#4b4b4b" font-size="10pt" font-family="noto_regular"  y="15"></text></g></g><g id="lYdkLssQ9jB"><g transform="translate(1195 560)"><path d="M 0,0 L 100,0 M 100,40 L 0,40 M 0,0 Z" fill="white" stroke="#000000" stroke-width="2" stroke-linecap="round" stroke-linejoin="round" stroke-dasharray="3 3"/><rect x="0" y="0" width="100" height="40" fill="rgba(255,255,255,0.01)" stroke="rgba(255,255,255,0.01)" stroke-width="2" stroke-linecap="round" stroke-linejoin="round" stroke-dasharray="3 3"/></g><g transform="translate(1223, 570) rotate(0, 22, 10)" width="44" height="20"><text text-decoration="none" x="0.5" fill="rgb(0, 0, 0)" font-size="10pt" font-family="lt_regular"  y="15">tbl_cart</text><text text-decoration="none" x="43.5" fill="#4b4b4b" font-size="10pt" font-family="noto_regular"  y="15"></text></g></g><g id="vIQJfEOma2O"><g transform="translate(1195 710)"><path d="M 0,0 L 100,0 M 100,40 L 0,40 M 0,0 Z" fill="white" stroke="#000000" stroke-width="2" stroke-linecap="round" stroke-linejoin="round" stroke-dasharray="3 3"/><rect x="0" y="0" width="100" height="40" fill="rgba(255,255,255,0.01)" stroke="rgba(255,255,255,0.01)" stroke-width="2" stroke-linecap="round" stroke-linejoin="round" stroke-dasharray="3 3"/></g><g transform="translate(1218.5, 720) rotate(0, 26.5, 10)" width="53" height="20"><text text-decoration="none" x="0.5" fill="rgb(0, 0, 0)" font-size="10pt" font-family="lt_regular"  y="15">tbl_order</text><text text-decoration="none" x="52.5" fill="#4b4b4b" font-size="10pt" font-family="noto_regular"  y="15"></text></g></g><g id="Od3BC4nVpib"><g transform="translate(1195 890)"><path d="M 0,0 L 100,0 M 100,40 L 0,40 M 0,0 Z" fill="white" stroke="#000000" stroke-width="2" stroke-linecap="round" stroke-linejoin="round" stroke-dasharray="3 3"/><rect x="0" y="0" width="100" height="40" fill="rgba(255,255,255,0.01)" stroke="rgba(255,255,255,0.01)" stroke-width="2" stroke-linecap="round" stroke-linejoin="round" stroke-dasharray="3 3"/></g><g transform="translate(1199.5, 900) rotate(0, 45.5, 10)" width="91" height="20"><text text-decoration="none" x="1" fill="rgb(0, 0, 0)" font-size="10pt" font-family="lt_regular"  y="15">tbl_order_detail</text><text text-decoration="none" x="90" fill="#4b4b4b" font-size="10pt" font-family="noto_regular"  y="15"></text></g></g><g id="Wm16LzLPWH9"><mask id="227e6" x="448" y="47" width="349" height="108" maskUnits="userSpaceOnUse"><rect x="448" y="47" width="349" height="108" fill="white" />undefined</mask><g mask="url(#227e6)"><path d="M 783,61 L 462,141" fill="none" stroke="#000000" stroke-width="2" stroke-linecap="round" stroke-linejoin="round"/><path d="M 783,61 L 773.1732648440693,57.519749591642096 L 775.9500086942646,68.67948496441876 Z" fill="rgb(0,0,0)" stroke="#000000" stroke-width="2" stroke-linecap="round" stroke-linejoin="round"/></g>undefined</g><g id="bm7zABafeKs"><g transform="translate(501.2884252594962 64.59911129492812)"><rect x="0" y="0" width="249.99999999999756" height="44.546601323228266" fill="rgba(255,255,255,0.01)" stroke="rgba(255,255,255,0.01)"/></g><g transform="translate(511.2884252594962, 74.59911129492812) rotate(0, 0, 0)" width="77" height="20"><text text-decoration="none" x="0" fill="rgb(0, 0, 0)" font-size="10pt" font-family="lt_regular"  y="15">Confirmation</text><text text-decoration="none" x="74" fill="#4b4b4b" font-size="10pt" font-family="noto_regular"  y="15"></text></g></g><g id="CvH9naKBac4"><mask id="f38fa" x="446" y="85" width="351" height="109" maskUnits="userSpaceOnUse"><rect x="446" y="85" width="351" height="109" fill="white" />undefined</mask><g mask="url(#f38fa)"><path d="M 783,99 L 460,180" fill="none" stroke="#000000" stroke-width="2" stroke-linecap="round" stroke-linejoin="round" stroke-dasharray="0 0"/><path d="M 460,180 L 469.8348092836609,183.45736794161346 L 467.0320971804645,172.30412604221056 Z" fill="rgb(0,0,0)" stroke="#000000" stroke-width="2" stroke-linecap="round" stroke-linejoin="round"/></g>undefined</g><g id="k9OvwsplhM5"><g transform="translate(579.9999999999999 139.9999999999999)"><rect x="0" y="0" width="249.9999999999981" height="99.99999999999923" fill="rgba(255,255,255,0.01)" stroke="rgba(255,255,255,0.01)"/></g><g transform="translate(589.9999999999999, 149.9999999999999) rotate(0, 0, 0)" width="35" height="20"><text text-decoration="none" x="0" fill="rgb(0, 0, 0)" font-size="10pt" font-family="lt_regular"  y="15">Log&#160;</text><text text-decoration="none" x="24" fill="rgb(0, 0, 0)" font-size="10pt" font-family="lt_regular"  y="15">In</text><text text-decoration="none" x="35" fill="#4b4b4b" font-size="10pt" font-family="noto_regular"  y="15"></text></g></g><g id="vaJcKVLkqWg"><mask id="c9a1a" x="866" y="66" width="356" height="32" maskUnits="userSpaceOnUse"><rect x="866" y="66" width="356" height="32" fill="white" />undefined</mask><g mask="url(#c9a1a)"><path d="M 880,80 L 1208,84" fill="none" stroke="#000000" stroke-width="2" stroke-linecap="round" stroke-linejoin="round" stroke-dasharray="0 0"/><path d="M 1208,84 L 1199.3751111045108,78.14439087112659 L 1199.2348776295153,89.64353582075178 Z" fill="rgb(0,0,0)" stroke="#000000" stroke-width="2" stroke-linecap="round" stroke-linejoin="round"/></g>undefined</g><g id="ZUfGO2wsy0y"><g transform="translate(939.9999999999999 39.99999999999997)"><rect x="0" y="0" width="249.99999999999986" height="99.99999999999994" fill="rgba(255,255,255,0.01)" stroke="rgba(255,255,255,0.01)"/></g><g transform="translate(949.9999999999999, 49.99999999999997) rotate(0, 0, 0)" width="95" height="20"><text text-decoration="none" x="0" fill="rgb(0, 0, 0)" font-size="10pt" font-family="lt_regular"  y="15">Store&#160;</text><text text-decoration="none" x="34" fill="rgb(0, 0, 0)" font-size="10pt" font-family="lt_regular"  y="15">&#x26;&#160;</text><text text-decoration="none" x="46" fill="rgb(0, 0, 0)" font-size="10pt" font-family="lt_regular"  y="15">Retrieve</text><text text-decoration="none" x="95" fill="#4b4b4b" font-size="10pt" font-family="noto_regular"  y="15"></text></g></g><g id="Whlswdr5Ey5"><mask id="f76f7" x="448" y="178" width="346" height="96" maskUnits="userSpaceOnUse"><rect x="448" y="178" width="346" height="96" fill="white" />undefinedundefined</mask><g mask="url(#f76f7)"><path d="M 462,192 L 780,260" fill="none" stroke="#000000" stroke-width="2" stroke-linecap="round" stroke-linejoin="round" stroke-dasharray="0 0"/><path d="M 780,260 L 772.6917647611301,252.5658514661718 L 770.2978992951735,263.813936108941 Z" fill="rgb(0,0,0)" stroke="#000000" stroke-width="2" stroke-linecap="round" stroke-linejoin="round"/></g>undefinedundefined</g><g id="O1HkyQNbKnB"><g><path d="M 783,279 L 462,205" fill="none" stroke="#000000" stroke-width="2" stroke-linecap="round" stroke-linejoin="round" stroke-dasharray="0 0"/><path d="M 462,205 L 469.1983768057624,212.540572796011 L 471.7570134474657,201.32882099106394 Z" fill="rgb(0,0,0)" stroke="#000000" stroke-width="2" stroke-linecap="round" stroke-linejoin="round"/></g></g><g id="SVk5kh9nlTx"><g transform="translate(610.0000000000001 189.9999999999999)"><rect x="0" y="0" width="249.99999999999815" height="99.99999999999926" fill="rgba(255,255,255,0.01)" stroke="rgba(255,255,255,0.01)"/></g><g transform="translate(620.0000000000001, 199.9999999999999) rotate(0, 0, 0)" width="84" height="20"><text text-decoration="none" x="0" fill="rgb(0, 0, 0)" font-size="10pt" font-family="lt_regular"  y="15">Add&#160;</text><text text-decoration="none" x="26" fill="rgb(0, 0, 0)" font-size="10pt" font-family="lt_regular"  y="15">New&#160;</text><text text-decoration="none" x="56" fill="rgb(0, 0, 0)" font-size="10pt" font-family="lt_regular"  y="15">Item</text><text text-decoration="none" x="83" fill="#4b4b4b" font-size="10pt" font-family="noto_regular"  y="15"></text></g></g><g id="Ie4qOZmZWii"><g transform="translate(586.3637951981094 255.65120699018848)"><rect x="0" y="0" width="249.99999999999864" height="99.99999999999946" fill="rgba(255,255,255,0.01)" stroke="rgba(255,255,255,0.01)"/></g><g transform="translate(596.3637951981094, 265.6512069901885) rotate(0, 0, 0)" width="77" height="20"><text text-decoration="none" x="0" fill="rgb(0, 0, 0)" font-size="10pt" font-family="lt_regular"  y="15">Confirmation</text><text text-decoration="none" x="74" fill="#4b4b4b" font-size="10pt" font-family="noto_regular"  y="15"></text></g></g><g id="9kKeVglCXbV"><g><path d="M 880,260 L 1189,263" fill="none" stroke="#000000" stroke-width="2" stroke-linecap="round" stroke-linejoin="round" stroke-dasharray="0 0"/><path d="M 1189,263 L 1180.3701010176608,257.1517771687204 L 1180.2397125242564,268.6510379641275 Z" fill="rgb(0,0,0)" stroke="#000000" stroke-width="2" stroke-linecap="round" stroke-linejoin="round"/></g></g><g id="HD7q1BFk758"><mask id="482eb" x="851" y="254" width="343" height="145" maskUnits="userSpaceOnUse"><rect x="851" y="254" width="343" height="145" fill="white" />undefined</mask><g mask="url(#482eb)"><path d="M 1180,268 L 865,385" fill="none" stroke="#000000" stroke-width="2" stroke-linecap="round" stroke-linejoin="round" stroke-dasharray="0 0"/><path d="M 865,385 L 875.1518636476687,387.3699221946764 L 871.1556151607233,376.58660183262714 Z" fill="rgb(0,0,0)" stroke="#000000" stroke-width="2" stroke-linecap="round" stroke-linejoin="round"/></g>undefined</g><g id="lGeqU2b2gA2"><g transform="translate(949.9999999999998 220.00000000000003)"><rect x="0" y="0" width="250" height="100" fill="rgba(255,255,255,0.01)" stroke="rgba(255,255,255,0.01)"/></g><g transform="translate(959.9999999999998, 230.00000000000003) rotate(0, 0, 0)" width="60" height="20"><text text-decoration="none" x="0" fill="rgb(0, 0, 0)" font-size="10pt" font-family="lt_regular"  y="15">Store&#160;</text><text text-decoration="none" x="34" fill="rgb(0, 0, 0)" font-size="10pt" font-family="lt_regular"  y="15">date</text><text text-decoration="none" x="59" fill="#4b4b4b" font-size="10pt" font-family="noto_regular"  y="15"></text></g></g><g id="btMo5JkRnoB"><g transform="translate(999.9999999999999 319.9999999999998)"><rect x="0" y="0" width="249.99999999999883" height="99.99999999999953" fill="rgba(255,255,255,0.01)" stroke="rgba(255,255,255,0.01)"/></g><g transform="translate(1009.9999999999999, 329.9999999999998) rotate(0, 0, 0)" width="79" height="20"><text text-decoration="none" x="0" fill="rgb(0, 0, 0)" font-size="10pt" font-family="lt_regular"  y="15">Retrieve&#160;</text><text text-decoration="none" x="52" fill="rgb(0, 0, 0)" font-size="10pt" font-family="lt_regular"  y="15">Data</text><text text-decoration="none" x="79" fill="#4b4b4b" font-size="10pt" font-family="noto_regular"  y="15"></text></g></g><g id="jkVEre1WCwL"><mask id="5098f" x="212" y="387" width="585" height="264" maskUnits="userSpaceOnUse"><rect x="212" y="387" width="585" height="264" fill="white" />undefined</mask><g mask="url(#5098f)"><path d="M 783,401 L 226,637" fill="none" stroke="#000000" stroke-width="2" stroke-linecap="round" stroke-linejoin="round" stroke-dasharray="0 0"/><path d="M 226,637 L 236.2479474979386,638.9121816883269 L 231.77204223763667,628.3189634756777 Z" fill="rgb(0,0,0)" stroke="#000000" stroke-width="2" stroke-linecap="round" stroke-linejoin="round"/></g>undefined</g><g id="Yk7OVVURlwp"><mask id="43d1d" x="236" y="406" width="558" height="248" maskUnits="userSpaceOnUse"><rect x="236" y="406" width="558" height="248" fill="white" />undefined</mask><g mask="url(#43d1d)"><path d="M 250,640 L 780,420" fill="none" stroke="#000000" stroke-width="2" stroke-linecap="round" stroke-linejoin="round" stroke-dasharray="0 0"/><path d="M 780,420 L 769.7643465315393,418.0230668187142 L 774.1731897554168,428.64437094896437 Z" fill="rgb(0,0,0)" stroke="#000000" stroke-width="2" stroke-linecap="round" stroke-linejoin="round"/></g>undefined</g><g id="cXFUowM1mjd"><g transform="translate(459.60007290149963 447.20350667615884)"><rect x="0" y="0" width="249.99999999999832" height="99.99999999999933" fill="rgba(255,255,255,0.01)" stroke="rgba(255,255,255,0.01)"/></g><g transform="translate(469.60007290149963, 457.20350667615884) rotate(0, 0, 0)" width="69" height="20"><text text-decoration="none" x="0" fill="rgb(0, 0, 0)" font-size="10pt" font-family="lt_regular"  y="15">Search&#160;</text><text text-decoration="none" x="41" fill="rgb(0, 0, 0)" font-size="10pt" font-family="lt_regular"  y="15">Item</text><text text-decoration="none" x="68" fill="#4b4b4b" font-size="10pt" font-family="noto_regular"  y="15"></text></g></g><g id="hZlLcph2Rxx"><g transform="translate(510.0000000000001 520)"><rect x="0" y="0" width="249.99999999999625" height="99.99999999999851" fill="rgba(255,255,255,0.01)" stroke="rgba(255,255,255,0.01)"/></g><g transform="translate(520.0000000000001, 530) rotate(0, 0, 0)" width="77" height="20"><text text-decoration="none" x="0" fill="rgb(0, 0, 0)" font-size="10pt" font-family="lt_regular"  y="15">Confirmation</text><text text-decoration="none" x="74" fill="#4b4b4b" font-size="10pt" font-family="noto_regular"  y="15"></text></g></g><g id="BfJHJi7abQt"><mask id="68dd7" x="866" y="406" width="343" height="28" maskUnits="userSpaceOnUse"><rect x="866" y="406" width="343" height="28" fill="white" />undefined</mask><g mask="url(#68dd7)"><path d="M 880,420 C 1037.5,420 1037.5,420 1195,420" fill="none" stroke="#000000" stroke-width="2" stroke-linecap="round" stroke-linejoin="round" stroke-dasharray="0 0"/><path d="M 1195,420 L 1186.304347826087,414.25 L 1186.304347826087,425.75 Z" fill="rgb(0,0,0)" stroke="#000000" stroke-width="2" stroke-linecap="round" stroke-linejoin="round"/></g>undefined</g><g id="xwgeoKqDjcK"><mask id="88f73" x="863" y="425" width="344" height="28" maskUnits="userSpaceOnUse"><rect x="863" y="425" width="344" height="28" fill="white" />undefined</mask><g mask="url(#88f73)"><path d="M 1193,439 L 877,439" fill="none" stroke="#000000" stroke-width="2" stroke-linecap="round" stroke-linejoin="round" stroke-dasharray="0 0"/><path d="M 877,439 L 885.6904673808517,444.7578332237076 L 885.7008299064363,433.2578378924884 Z" fill="rgb(0,0,0)" stroke="#000000" stroke-width="2" stroke-linecap="round" stroke-linejoin="round"/></g>undefined</g><g id="Wf0iQERs9l3"><g transform="translate(990 390)"><rect x="0" y="0" width="250" height="100" fill="rgba(255,255,255,0.01)" stroke="rgba(255,255,255,0.01)"/></g><g transform="translate(1000, 400) rotate(0, 0, 0)" width="69" height="20"><text text-decoration="none" x="0" fill="rgb(0, 0, 0)" font-size="10pt" font-family="lt_regular"  y="15">Search&#160;</text><text text-decoration="none" x="41" fill="rgb(0, 0, 0)" font-size="10pt" font-family="lt_regular"  y="15">Item</text><text text-decoration="none" x="68" fill="#4b4b4b" font-size="10pt" font-family="noto_regular"  y="15"></text></g></g><g id="HhP6bPLby3A"><g transform="translate(980 430)"><rect x="0" y="0" width="250" height="100" fill="rgba(255,255,255,0.01)" stroke="rgba(255,255,255,0.01)"/></g><g transform="translate(990, 440) rotate(0, 0, 0)" width="77" height="20"><text text-decoration="none" x="0" fill="rgb(0, 0, 0)" font-size="10pt" font-family="lt_regular"  y="15">Confirmation</text><text text-decoration="none" x="74" fill="#4b4b4b" font-size="10pt" font-family="noto_regular"  y="15"></text></g></g><g id="iCYP2mvwfjZ"><mask id="58ab0" x="286" y="566" width="508" height="138" maskUnits="userSpaceOnUse"><rect x="286" y="566" width="508" height="138" fill="white" />undefined</mask><g mask="url(#58ab0)"><path d="M 300,690 L 780,580" fill="none" stroke="#000000" stroke-width="2" stroke-linecap="round" stroke-linejoin="round" stroke-dasharray="0 0"/><path d="M 780,580 L 770.2396538965123,576.3376905278485 L 772.8084796943003,587.5471121909236 Z" fill="rgb(0,0,0)" stroke="#000000" stroke-width="2" stroke-linecap="round" stroke-linejoin="round"/></g>undefined</g><g id="g1vBtGhjJ1a"><mask id="61763" x="288" y="585" width="509" height="139" maskUnits="userSpaceOnUse"><rect x="288" y="585" width="509" height="139" fill="white" />undefinedundefined</mask><g mask="url(#61763)"><path d="M 783,599 L 302,710" fill="none" stroke="#000000" stroke-width="2" stroke-linecap="round" stroke-linejoin="round" stroke-dasharray="0 0"/><path d="M 302,710 L 311.7647211506047,713.6506283816094 L 309.18248487192335,702.4442883992127 Z" fill="rgb(0,0,0)" stroke="#000000" stroke-width="2" stroke-linecap="round" stroke-linejoin="round"/></g>undefinedundefined</g><g id="KeyRorMd1p5"><g transform="translate(507.9075997624699 581.4608929305014)"><rect x="0" y="0" width="249.9999999999938" height="99.99999999999753" fill="rgba(255,255,255,0.01)" stroke="rgba(255,255,255,0.01)"/></g><g transform="translate(517.9075997624699, 591.4608929305014) rotate(0, 0, 0)" width="83" height="20"><text text-decoration="none" x="0" fill="rgb(0, 0, 0)" font-size="10pt" font-family="lt_regular"  y="15">Add&#160;</text><text text-decoration="none" x="26" fill="rgb(0, 0, 0)" font-size="10pt" font-family="lt_regular"  y="15">to&#160;</text><text text-decoration="none" x="41" fill="rgb(0, 0, 0)" font-size="10pt" font-family="lt_regular"  y="15">cart&#160;</text><text text-decoration="none" x="66" fill="rgb(0, 0, 0)" font-size="10pt" font-family="lt_regular"  y="15">list</text><text text-decoration="none" x="83" fill="#4b4b4b" font-size="10pt" font-family="noto_regular"  y="15"></text></g></g><g id="Dr8szSs8wqJ"><g transform="translate(549.9999999999984 640)"><rect x="0" y="0" width="249.9999999999952" height="99.99999999999808" fill="rgba(255,255,255,0.01)" stroke="rgba(255,255,255,0.01)"/></g><g transform="translate(559.9999999999984, 650) rotate(0, 0, 0)" width="77" height="20"><text text-decoration="none" x="0" fill="rgb(0, 0, 0)" font-size="10pt" font-family="lt_regular"  y="15">Confirmation</text><text text-decoration="none" x="74" fill="#4b4b4b" font-size="10pt" font-family="noto_regular"  y="15"></text></g></g><g id="2jK6rWOEpba"><g><path d="M 880,580 L 1193,580" fill="none" stroke="#000000" stroke-width="2" stroke-linecap="round" stroke-linejoin="round" stroke-dasharray="0 0"/><path d="M 1193,580 L 1184.2990411991586,574.2580332049255 L 1184.3096618697107,585.7580283006356 Z" fill="rgb(0,0,0)" stroke="#000000" stroke-width="2" stroke-linecap="round" stroke-linejoin="round"/></g></g><g id="ce5zoFZybPA"><g transform="translate(980 540)"><rect x="0" y="0" width="250" height="100" fill="rgba(255,255,255,0.01)" stroke="rgba(255,255,255,0.01)"/></g><g transform="translate(990, 550) rotate(0, 0, 0)" width="61" height="20"><text text-decoration="none" x="0" fill="rgb(0, 0, 0)" font-size="10pt" font-family="lt_regular"  y="15">Give&#160;</text><text text-decoration="none" x="30" fill="rgb(0, 0, 0)" font-size="10pt" font-family="lt_regular"  y="15">order</text><text text-decoration="none" x="61" fill="#4b4b4b" font-size="10pt" font-family="noto_regular"  y="15"></text></g></g><g id="GvYBaOuxqEu"><g><path d="M 877,561 L 1252,471" fill="none" stroke="#000000" stroke-width="2" stroke-linecap="round" stroke-linejoin="round" stroke-dasharray="0 0"/><path d="M 1252,471 L 1242.1987397203563,467.4486391818971 L 1244.8945503652278,478.6282011128046 Z" fill="rgb(0,0,0)" stroke="#000000" stroke-width="2" stroke-linecap="round" stroke-linejoin="round"/></g></g><g id="XEcqfsNtyIh"><g><path d="M 1193,464 L 865,545" fill="none" stroke="#000000" stroke-width="2" stroke-linecap="round" stroke-linejoin="round" stroke-dasharray="0 0"/><path d="M 865,545 L 874.8186434183513,548.5030141525473 L 872.0677692923298,537.3368737476094 Z" fill="rgb(0,0,0)" stroke="#000000" stroke-width="2" stroke-linecap="round" stroke-linejoin="round"/></g></g><g id="lo1GB1LIMEH"><g transform="translate(929.9999999999999 469.9999999999999)"><rect x="0" y="0" width="249.9999999999978" height="99.99999999999912" fill="rgba(255,255,255,0.01)" stroke="rgba(255,255,255,0.01)"/></g><g transform="translate(939.9999999999999, 479.9999999999999) rotate(0, 0, 0)" width="83" height="20"><text text-decoration="none" x="0" fill="rgb(0, 0, 0)" font-size="10pt" font-family="lt_regular"  y="15">Add&#160;</text><text text-decoration="none" x="26" fill="rgb(0, 0, 0)" font-size="10pt" font-family="lt_regular"  y="15">to&#160;</text><text text-decoration="none" x="41" fill="rgb(0, 0, 0)" font-size="10pt" font-family="lt_regular"  y="15">cart&#160;</text><text text-decoration="none" x="66" fill="rgb(0, 0, 0)" font-size="10pt" font-family="lt_regular"  y="15">list</text><text text-decoration="none" x="83" fill="#4b4b4b" font-size="10pt" font-family="noto_regular"  y="15"></text></g></g><g id="9XqMVvistzb"><g transform="translate(1109.9999999999995 489.9999999999999)"><rect x="0" y="0" width="249.99999999999878" height="99.99999999999952" fill="rgba(255,255,255,0.01)" stroke="rgba(255,255,255,0.01)"/></g><g transform="translate(1119.9999999999995, 499.9999999999999) rotate(0, 0, 0)" width="77" height="20"><text text-decoration="none" x="0" fill="rgb(0, 0, 0)" font-size="10pt" font-family="lt_regular"  y="15">Confirmation</text><text text-decoration="none" x="74" fill="#4b4b4b" font-size="10pt" font-family="noto_regular"  y="15"></text></g></g><g id="mWu6frdaNej"><g><path d="M 302,725 L 775,730" fill="none" stroke="#000000" stroke-width="2" stroke-linecap="round" stroke-linejoin="round" stroke-dasharray="0 0"/></g></g><g id="OkrolNH97AD"><mask id="5cb40" x="288" y="724" width="504" height="39" maskUnits="userSpaceOnUse"><rect x="288" y="724" width="504" height="39" fill="white" />undefined</mask><g mask="url(#5cb40)"><path d="M 778,749 L 302,738" fill="none" stroke="#000000" stroke-width="2" stroke-linecap="round" stroke-linejoin="round" stroke-dasharray="0 0"/><path d="M 302,738 L 310.5633541222518,743.9452361522981 L 310.8234998620644,732.448178955169 Z" fill="rgb(0,0,0)" stroke="#000000" stroke-width="2" stroke-linecap="round" stroke-linejoin="round"/></g>undefined</g><g id="eZUpqf7NhO2"><g transform="translate(539.9999999999972 689.999999999997)"><rect x="0" y="0" width="249.99999999999832" height="99.99999999999933" fill="rgba(255,255,255,0.01)" stroke="rgba(255,255,255,0.01)"/></g><g transform="translate(549.9999999999972, 699.999999999997) rotate(0, 0, 0)" width="61" height="20"><text text-decoration="none" x="0" fill="rgb(0, 0, 0)" font-size="10pt" font-family="lt_regular"  y="15">Give&#160;</text><text text-decoration="none" x="30" fill="rgb(0, 0, 0)" font-size="10pt" font-family="lt_regular"  y="15">order</text><text text-decoration="none" x="61" fill="#4b4b4b" font-size="10pt" font-family="noto_regular"  y="15"></text></g></g><g id="nPE4VPArVfq"><mask id="18eec" x="861" y="716" width="345" height="28" maskUnits="userSpaceOnUse"><rect x="861" y="716" width="345" height="28" fill="white" />undefined</mask><g mask="url(#18eec)"><path d="M 875,730 L 1192,730" fill="none" stroke="#000000" stroke-width="2" stroke-linecap="round" stroke-linejoin="round" stroke-dasharray="0 0"/><path d="M 1192,730 L 1183.3108239056396,724.2402182740252 L 1183.297882758179,735.7402109925753 Z" fill="rgb(0,0,0)" stroke="#000000" stroke-width="2" stroke-linecap="round" stroke-linejoin="round"/></g>undefined</g><g id="1NdszSfC9zS"><g transform="translate(930.0000000000001 700)"><rect x="0" y="0" width="250" height="100" fill="rgba(255,255,255,0.01)" stroke="rgba(255,255,255,0.01)"/></g><g transform="translate(940.0000000000001, 710) rotate(0, 0, 0)" width="61" height="20"><text text-decoration="none" x="0" fill="rgb(0, 0, 0)" font-size="10pt" font-family="lt_regular"  y="15">Give&#160;</text><text text-decoration="none" x="30" fill="rgb(0, 0, 0)" font-size="10pt" font-family="lt_regular"  y="15">order</text><text text-decoration="none" x="61" fill="#4b4b4b" font-size="10pt" font-family="noto_regular"  y="15"></text></g></g><g id="vFof4pKSRoV"><mask id="027fc" x="236" y="726" width="553" height="198" maskUnits="userSpaceOnUse"><rect x="236" y="726" width="553" height="198" fill="white" />undefined</mask><g mask="url(#027fc)"><path d="M 250,740 L 775,910" fill="none" stroke="#000000" stroke-width="2" stroke-linecap="round" stroke-linejoin="round" stroke-dasharray="0 0"/><path d="M 775,910 L 768.4986020511777,901.8508471949086 L 764.9558946404006,912.7915612576024 Z" fill="rgb(0,0,0)" stroke="#000000" stroke-width="2" stroke-linecap="round" stroke-linejoin="round"/></g>undefined</g><g id="my6NtXXHwCP"><g><path d="M 778,929 L 217,742" fill="none" stroke="#000000" stroke-width="2" stroke-linecap="round" stroke-linejoin="round" stroke-dasharray="0 0"/><path d="M 217,742 L 223.43150950526058,750.2044227227406 L 227.06759801360533,739.2943878758905 Z" fill="rgb(0,0,0)" stroke="#000000" stroke-width="2" stroke-linecap="round" stroke-linejoin="round"/></g></g><g id="hNrYBgURHhS"><g transform="translate(509.9999999999998 739.9999999999998)"><rect x="0" y="0" width="249.99999999999625" height="99.99999999999851" fill="rgba(255,255,255,0.01)" stroke="rgba(255,255,255,0.01)"/></g><g transform="translate(519.9999999999998, 749.9999999999998) rotate(0, 0, 0)" width="77" height="20"><text text-decoration="none" x="0" fill="rgb(0, 0, 0)" font-size="10pt" font-family="lt_regular"  y="15">Confirmation</text><text text-decoration="none" x="74" fill="#4b4b4b" font-size="10pt" font-family="noto_regular"  y="15"></text></g></g><g id="RqxtlAArK7O"><g transform="translate(459.9999999999999 849.9999999999998)"><rect x="0" y="0" width="249.99999999999795" height="99.99999999999918" fill="rgba(255,255,255,0.01)" stroke="rgba(255,255,255,0.01)"/></g><g transform="translate(469.9999999999999, 859.9999999999998) rotate(0, 0, 0)" width="81" height="20"><text text-decoration="none" x="0" fill="rgb(0, 0, 0)" font-size="10pt" font-family="lt_regular"  y="15">Conformation</text><text text-decoration="none" x="79" fill="#4b4b4b" font-size="10pt" font-family="noto_regular"  y="15"></text></g></g><g id="AQjv48h8ZWb"><g><path d="M 875,910 L 1191,910" fill="none" stroke="#000000" stroke-width="2" stroke-linecap="round" stroke-linejoin="round" stroke-dasharray="0 0"/><path d="M 1191,910 L 1182.3109302347777,904.2400578696675 L 1182.2977767932869,915.7400503473597 Z" fill="rgb(0,0,0)" stroke="#000000" stroke-width="2" stroke-linecap="round" stroke-linejoin="round"/></g></g><g id="u8dkvgQfBOE"><g><path d="M 200,690 L 180,690 L 180,316 L 180,-57.984748925564276 L 507,-58 L 833,-57.984748925564276 L 833,31" fill="none" stroke="#000000" stroke-width="2" stroke-linecap="round" stroke-linejoin="round" stroke-dasharray="0 0"/></g></g><g id="WclrWFAiEz7"><g><path d="M 198,701 L 137,700" fill="none" stroke="#000000" stroke-width="2" stroke-linecap="round" stroke-linejoin="round"/></g></g><g id="dVkoVkvSrP1"><g><path d="M 849,33 L 849.0541406402913,33 L 849,-29 L 849.0541406402913,-91 L 493,-91 L 137,-91 L 137,699" fill="none" stroke="#000000" stroke-width="2" stroke-linecap="round" stroke-linejoin="round" stroke-dasharray="0 0"/></g></g><g id="wOfucgS9q9I"><g transform="translate(959.9999999999995 870)"><rect x="0" y="0" width="250" height="100" fill="rgba(255,255,255,0.01)" stroke="rgba(255,255,255,0.01)"/></g><g transform="translate(969.9999999999995, 880) rotate(0, 0, 0)" width="62" height="20"><text text-decoration="none" x="0" fill="rgb(0, 0, 0)" font-size="10pt" font-family="lt_regular"  y="15">Store&#160;</text><text text-decoration="none" x="34" fill="rgb(0, 0, 0)" font-size="10pt" font-family="lt_regular"  y="15">Data</text><text text-decoration="none" x="61" fill="#4b4b4b" font-size="10pt" font-family="noto_regular"  y="15"></text></g></g><g id="N1aIGPLC4D8"><g transform="translate(539.9999999999999 799.9999999999998)"><rect x="0" y="0" width="249.99999999999903" height="99.99999999999962" fill="rgba(255,255,255,0.01)" stroke="rgba(255,255,255,0.01)"/></g><g transform="translate(549.9999999999999, 809.9999999999998) rotate(0, 0, 0)" width="96" height="20"><text text-decoration="none" x="0" fill="rgb(0, 0, 0)" font-size="10pt" font-family="lt_regular"  y="15">pay&#160;</text><text text-decoration="none" x="23" fill="rgb(0, 0, 0)" font-size="10pt" font-family="lt_regular"  y="15">for&#160;</text><text text-decoration="none" x="43" fill="rgb(0, 0, 0)" font-size="10pt" font-family="lt_regular"  y="15">purchase</text><text text-decoration="none" x="94" fill="#4b4b4b" font-size="10pt" font-family="noto_regular"  y="15"></text></g></g><g id="ZJdk0xIzERI"><g transform="translate(70 270)"><rect x="0" y="0" width="250" height="100" fill="rgba(255,255,255,0.01)" stroke="rgba(255,255,255,0.01)"/></g><g transform="translate(80, 280) rotate(0, 0, 0)" width="31" height="20"><text text-decoration="none" x="0" fill="rgb(0, 0, 0)" font-size="10pt" font-family="lt_regular"  y="15">Login</text><text text-decoration="none" x="31" fill="#4b4b4b" font-size="10pt" font-family="noto_regular"  y="15"></text></g></g><g id="pYLaulnyWCW"><g transform="translate(179.9999999999999 270)"><rect x="0" y="0" width="250" height="100" fill="rgba(255,255,255,0.01)" stroke="rgba(255,255,255,0.01)"/></g><g transform="translate(189.9999999999999, 280) rotate(0, 0, 0)" width="77" height="20"><text text-decoration="none" x="0" fill="rgb(0, 0, 0)" font-size="10pt" font-family="lt_regular"  y="15">Confirmation</text><text text-decoration="none" x="74" fill="#4b4b4b" font-size="10pt" font-family="noto_regular"  y="15"></text></g></g></svg>